<?xml version="1.0" encoding="UTF-8"?>
<svg version="1.1" viewBox="0 0 1440 1440" width="1280" height="1280" xmlns="http://www.w3.org/2000/svg">
<path transform="translate(830,258)" d="m0 0h41l24 2 20 3 30 8 22 8 26 12 24 14 15 10 17 12 16 13 12 11 11 10 7 8 11 12 13 18 12 21 9 20 7 22 4 21 1 11v34l-2 17-6 21-8 24 21 4 18 7 16 8 16 10 13 12 13 13 10 15 8 15 5 14 3 15v41l28 14 11 7 10 8 10 9 10 11 12 17 10 21 6 20 1 7v26l-3 14-8 16-7 11-12 13-12 10-16 10-19 7-18 4-8 1-30 1h-9l-8 2-12 16-2 3h-2l-2 4-16 16-8 7-13 10-15 10-19 11-22 11-24 10-26 8-22 5-21 3-13 1h-49l-25-2-19-4-20-7-16-8-16-10-13-11-32-32-3-4-3 1-7 8-12 11-20 15-17 11-23 12-18 7-18 5-24 4-28 2-31-1-25-3-26-6-21-7-24-11-25-15-16-12-12-11-10-11-11-15-12-19-8-20-18 8-15 3-9 1h-21l-16-2-20-5-17-7-12-8-10-9-8-10-9-15-13-32-3-9-2-9-5-5-22-12-13-9-11-10-7-10-6-12-2-9v-19l3-19 4-12 9-16 9-11 11-10 16-10 16-8 23-8 24-4 19-1 5-1 1-4 1-42 3-26 4-17 5-13 7-14 8-12 13-15 15-12 19-12 17-9 26-10 23-6 21-3h46l17 2 16 4 16 8 6 4 5 3-1-25v-18l2-27 4-20 8-24 12-23 10-13 9-10 11-11 11-9 15-11 18-11 16-8 18-8 26-9 26-7 21-4 23-3z" fill="#FDFDFD"/>
<path transform="translate(830,258)" d="m0 0h41l24 2 20 3 30 8 22 8 26 12 24 14 15 10 17 12 16 13 12 11 11 10 7 8 11 12 13 18 12 21 9 20 7 22 4 21 1 11v34l-2 17-6 21-8 24 21 4 18 7 16 8 16 10 13 12 13 13 10 15 8 15 5 14 3 15v41l28 14 11 7 10 8 10 9 10 11 12 17 10 21 6 20 1 7v26l-3 14-8 16-7 11-12 13-12 10-16 10-19 7-18 4-8 1-30 1h-9l-8 2-12 16-2 3h-2l-2 4-16 16-8 7-13 10-15 10-19 11-22 11-24 10-26 8-22 5-21 3-13 1h-49l-25-2-19-4-20-7-16-8-16-10-13-11-32-32-3-4-3 1-7 8-12 11-20 15-17 11-23 12-18 7-18 5-24 4-28 2-31-1-25-3-26-6-21-7-24-11-25-15-16-12-12-11-10-11-11-15-12-19-8-20-18 8-15 3-9 1h-21l-16-2-20-5-17-7-12-8-10-9-8-10-9-15-13-32-3-9-2-9-5-5-22-12-13-9-11-10-7-10-6-12-2-9v-19l3-19 4-12 9-16 9-11 11-10 16-10 16-8 23-8 24-4 19-1 5-1 1-4 1-42 3-26 4-17 5-13 7-14 8-12 13-15 15-12 19-12 17-9 26-10 23-6 21-3h46l17 2 16 4 16 8 6 4 5 3-1-25v-18l2-27 4-20 8-24 12-23 10-13 9-10 11-11 11-9 15-11 18-11 16-8 18-8 26-9 26-7 21-4 23-3zm-6 20-32 3-31 6-33 9-23 8-20 9-11 6-18 12-14 11-12 11-8 9-10 14-11 21-7 20-4 16-2 13-1 13v34l2 21 3 7 11 6 2 3-1 4-2 1-25 2-15 5-6 4-8 7-9 12-5 12-2 8-1 17-1 11-2 4-6 2-12 1-8 6-5 8-2 8v26l5 15v10l-4 2h-8l-6-5-5-13-2-11v-20l3-17 4-10 7-9 9-6 12-6 1-1 3-21 6-15 9-15 9-10 10-8 12-5 10-3v-4l-10-8-16-8-11-3-8-1-20-1h-14l-25 2-23 5-24 8-25 12-18 11-12 9-12 11-10 15-8 16-4 13-2 11-4 64-2 11-2 3-26 2-15 3-24 7-20 8-15 8-9 7-10 9-7 8-7 13-3 10v15l5 5 11 7 10 7 20 13 11 6 23 11 27 9 15 3 11 1h32l25-2 16-5 25-10 19-8 20-7h20l10 4 8 7 11 14 7 9 9 10 5 5 11 10 10 7 16 8 15 5 19 3h64l17-4 27-10 14-4 9 1 10 5 15 15 6 9 7 16 8 11 9 10 7 8 10 11 8 7 10 8 15 9 19 9 21 7 20 5 32 5 32 3 31 2h61l31-3 23-4 21-5 27-10 26-11 8-4 5-4 9-13 8-13 1-4 3-1 7-20 2-17v-6h4l-4 44-2 10v6l4 1 30-2 19-5 19-7 13-8 12-11 11-13 9-16 3-12v-26l-4-16-10-21-10-14-11-12-10-10-13-9-16-9-14-6h-8l-11 5 10-35 1-6v-23l-4-16-8-16-9-13-12-13-9-8-15-11-27-14-18-6-9-1-7 8-10 14-9 11-13 14-10 8-13 8-2 1 8-16 10-16 12-17 14-23 11-21 7-20 3-12 2-14v-38l-4-24-8-24-12-23-13-18-12-14-11-12-14-14-8-7-15-12-17-12-24-15-27-14-28-11-21-6-21-4-24-2z" fill="#C5E5F7"/>
<path transform="translate(830,258)" d="m0 0h41l24 2 20 3 30 8 22 8 26 12 24 14 15 10 17 12 16 13 12 11 11 10 7 8 11 12 13 18 12 21 9 20 7 22 4 21 1 11v34l-2 17-6 21-8 24 21 4 18 7 16 8 16 10 13 12 13 13 10 15 8 15 5 14 3 15v41l28 14 11 7 10 8 10 9 10 11 12 17 10 21 6 20 1 7v26l-3 14-8 16-7 11-12 13-12 10-16 10-19 7-18 4-8 1-30 1h-9l-8 2-12 16-2 3h-2l-2 4-16 16-8 7-13 10-15 10-19 11-22 11-24 10-26 8-22 5-21 3-13 1h-49l-25-2-19-4-20-7-16-8-16-10-13-11-32-32-3-4-3 1-7 8-12 11-20 15-17 11-23 12-18 7-18 5-24 4-28 2-31-1-25-3-26-6-21-7-24-11-25-15-16-12-12-11-10-11-11-15-12-19-8-20-18 8-15 3-9 1h-21l-16-2-20-5-17-7-12-8-10-9-8-10-9-15-13-32-3-9-2-9-5-5-22-12-13-9-11-10-7-10-6-12-2-9v-19l3-19 4-12 9-16 9-11 11-10 16-10 16-8 23-8 24-4 19-1 5-1 1-4 1-42 3-26 4-17 5-13 7-14 8-12 13-15 15-12 19-12 17-9 26-10 23-6 21-3h46l17 2 16 4 16 8 6 4 5 3-1-25v-18l2-27 4-20 8-24 12-23 10-13 9-10 11-11 11-9 15-11 18-11 16-8 18-8 26-9 26-7 21-4 23-3zm-6 20-32 3-31 6-33 9-23 8-20 9-11 6-18 12-14 11-12 11-8 9-10 14-11 21-7 20-4 16-2 13-1 13v34l2 21 3 7 11 6 2 3-1 4-2 1-25 2-15 5-6 4-8 7-9 12-5 12-2 8-1 17-1 11-2 4-6 2-12 1-8 6-5 8-2 8v26l5 15v10l-4 2h-8l-6-5-5-13-2-11v-20l3-17 4-10 7-9 9-6 12-6 1-1 3-21 6-15 9-15 9-10 10-8 12-5 10-3v-4l-10-8-16-8-11-3-8-1-20-1h-14l-25 2-23 5-24 8-25 12-18 11-12 9-12 11-10 15-8 16-4 13-2 11-4 64-2 11-2 3-26 2-15 3-24 7-20 8-15 8-9 7-10 9-7 8-7 13-4 15v30l5 12 12 13 13 10 14 9 10 4h9l20-6h8v5l-7 9-10 6-7 4 3 12 10 26 7 13 9 10 7 7 13 8 21 7 24 3h23l15-2 16-5-1-5-12-21-8-17-5-15-2-7v-14l4-4 4 2 12 26 14 24 9 13 11 12 9 7 12 6 15 4h23l8-2 10-4-3 6-13 12-10 5-7 2h-16l-16-4-10-4h-3l1 5 9 12 9 11 9 10 8 8 10 8 17 13 13 8 17 9 24 9 19 5 24 4 28 2h35l18-2 23-5 17-6 18-8 17-9 12-8 16-12 16-13 13-10 5-3-1 8 9 8 11 9 7 7 11 9 11 10 13 9 16 8 16 5 24 4 26 2h37l26-2 23-4 22-6 20-7 26-12 28-15 22-14 16-12 17-17 11-14 7-10 8-14 6-15 3-9 2-17v-6h4l-4 44-2 10v6l4 1 30-2 19-5 19-7 13-8 12-11 11-13 9-16 3-12v-26l-4-16-10-21-10-14-11-12-10-10-13-9-16-9-14-6h-8l-11 5 10-35 1-6v-23l-4-16-8-16-9-13-12-13-9-8-15-11-27-14-18-6-9-1-7 8-10 14-9 11-13 14-10 8-13 8-2 1 8-16 10-16 12-17 14-23 11-21 7-20 3-12 2-14v-38l-4-24-8-24-12-23-13-18-12-14-11-12-14-14-8-7-15-12-17-12-24-15-27-14-28-11-21-6-21-4-24-2z" fill="#6CA9C8"/>
<path transform="translate(1335,857)" d="m0 0h1v26l-3 12-6 11-8 11-11 12-10 8-10 6-25 9-13 3-33 2-1-1 1-11 2-14 3-35h-4l-1 16-2 10-6 17-2 1 3-10 4-13 2-21 3-2 4 1 1 1-1 14-3 32-1 5v7l9-3 21-11 16-8 15-8 29-13 10-6 7-4 5-8 3-11z" fill="#C5E5F7"/>
<path transform="translate(564,541)" d="m0 0 3 1-9 5-14 14v-3l8-9 8-6z" fill="#D5ECF9"/>
<path transform="translate(366,540)" d="m0 0 2 1-18 18v-3l9-10z" fill="#D8EDF9"/>
<path transform="translate(565,513)" d="m0 0 4 2 2 4-8 3-9 2 2-2 12-3z" fill="#C5E5F7"/>
</svg>
